{
  "accessors": [
    {
      "bufferView": 2,
      "componentType": 5126,
      "count": 549,
      "max": [
        4.831315994262695,
        8.36606216430664,
        1.648850917816162
      ],
      "min": [
        -4.831315994262695,
        -1.0114660263061523,
        -1.573043942451477
      ],
      "type": "VEC3"
    },
    {
      "bufferView": 2,
      "byteOffset": 6588,
      "componentType": 5126,
      "count": 549,
      "max": [
        0.8173052668571472,
        0.9838123321533203,
        0.8115366697311401
      ],
      "min": [
        -0.8173052668571472,
        -0.9838123321533203,
        -0.9003422856330872
      ],
      "type": "VEC3"
    },
    {
      "bufferView": 1,
      "componentType": 5126,
      "count": 549,
      "max": [
        1.0,
        1.0
      ],
      "min": [
        0.0,
        0.005927026271820068
      ],
      "type": "VEC2"
    },
    {
      "bufferView": 1,
      "byteOffset": 4392,
      "componentType": 5126,
      "count": 549,
      "max": [
        1.0,
        1.0
      ],
      "min": [
        0.0,
        0.005927026271820068
      ],
      "type": "VEC2"
    },
    {
      "bufferView": 1,
      "byteOffset": 8784,
      "componentType": 5126,
      "count": 549,
      "max": [
        1.0,
        1.0
      ],
      "min": [
        0.0,
        0.005927026271820068
      ],
      "type": "VEC2"
    },
    {
      "bufferView": 0,
      "componentType": 5125,
      "count": 1320,
      "type": "SCALAR"
    },
    {
      "bufferView": 2,
      "byteOffset": 13176,
      "componentType": 5126,
      "count": 16,
      "max": [
        4.4616827964782715,
        0.12120699882507324,
        1.2243629693984985
      ],
      "min": [
        -4.4616827964782715,
        -0.7838539481163025,
        -1.4504890441894531
      ],
      "type": "VEC3"
    },
    {
      "bufferView": 2,
      "byteOffset": 13368,
      "componentType": 5126,
      "count": 16,
      "max": [
        0.242703378200531,
        -0.9559133648872375,
        -0.1653023064136505
      ],
      "min": [
        -0.242703378200531,
        -0.9790013432502747,
        -0.18430981040000916
      ],
      "type": "VEC3"
    },
    {
      "bufferView": 1,
      "byteOffset": 13176,
      "componentType": 5126,
      "count": 16,
      "max": [
        0.5972188711166382,
        1.0
      ],
      "min": [
        0.0,
        0.0
      ],
      "type": "VEC2"
    },
    {
      "bufferView": 1,
      "byteOffset": 13304,
      "componentType": 5126,
      "count": 16,
      "max": [
        0.5972188711166382,
        1.0
      ],
      "min": [
        0.0,
        0.0
      ],
      "type": "VEC2"
    },
    {
      "bufferView": 1,
      "byteOffset": 13432,
      "componentType": 5126,
      "count": 16,
      "max": [
        0.5972188711166382,
        1.0
      ],
      "min": [
        0.0,
        0.0
      ],
      "type": "VEC2"
    },
    {
      "bufferView": 0,
      "byteOffset": 5280,
      "componentType": 5125,
      "count": 36,
      "type": "SCALAR"
    },
    {
      "bufferView": 2,
      "byteOffset": 13560,
      "componentType": 5126,
      "count": 50,
      "max": [
        4.6095170974731445,
        -0.07760199904441833,
        1.130607008934021
      ],
      "min": [
        -4.6095170974731445,
        -0.34305498003959656,
        0.9587010145187378
      ],
      "type": "VEC3"
    },
    {
      "bufferView": 2,
      "byteOffset": 14160,
      "componentType": 5126,
      "count": 50,
      "max": [
        1.0,
        -0.0,
        0.9996079802513123
      ],
      "min": [
        -1.0,
        -0.9916633367538452,
        -0.9996079802513123
      ],
      "type": "VEC3"
    },
    {
      "bufferView": 1,
      "byteOffset": 13560,
      "componentType": 5126,
      "count": 50,
      "max": [
        1.0,
        1.0
      ],
      "min": [
        0.0,
        0.06198650598526001
      ],
      "type": "VEC2"
    },
    {
      "bufferView": 0,
      "byteOffset": 5424,
      "componentType": 5125,
      "count": 240,
      "type": "SCALAR"
    }
  ],
  "asset": {
    "extras": {
      "author": "nichos321 (https://sketchfab.com/nichos321)",
      "license": "CC-BY-4.0 (http://creativecommons.org/licenses/by/4.0/)",
      "source": "https://sketchfab.com/3d-models/kismet-glasses-550db344f7674d81be9d49e550f668ba",
      "title": "kismet glasses"
    },
    "generator": "Sketchfab-11.22.0",
    "version": "2.0"
  },
  "bufferViews": [
    {
      "buffer": 0,
      "byteLength": 6384,
      "name": "floatBufferViews",
      "target": 34963
    },
    {
      "buffer": 0,
      "byteLength": 13960,
      "byteOffset": 6384,
      "byteStride": 8,
      "name": "floatBufferViews",
      "target": 34962
    },
    {
      "buffer": 0,
      "byteLength": 14760,
      "byteOffset": 20344,
      "byteStride": 12,
      "name": "floatBufferViews",
      "target": 34962
    }
  ],
  "buffers": [
    {
      "byteLength": 35104,
      "uri": "scene.bin"
    }
  ],
  "images": [
    {
      "uri": "textures/material_0_baseColor.png"
    },
    {
      "uri": "textures/material_0_metallicRoughness.png"
    },
    {
      "uri": "textures/material_1_baseColor.png"
    },
    {
      "uri": "textures/material_1_metallicRoughness.png"
    }
  ],
  "materials": [
    {
      "doubleSided": true,
      "name": "material_0",
      "pbrMetallicRoughness": {
        "baseColorTexture": {
          "index": 0
        },
        "metallicFactor": 0.0,
        "metallicRoughnessTexture": {
          "index": 1
        }
      }
    },
    {
      "doubleSided": true,
      "name": "material_1",
      "pbrMetallicRoughness": {
        "baseColorTexture": {
          "index": 2
        },
        "metallicRoughnessTexture": {
          "index": 3
        }
      }
    },
    {
      "doubleSided": true,
      "name": "material_2",
      "pbrMetallicRoughness": {
        "roughnessFactor": 0.360784
      }
    }
  ],
  "meshes": [
    {
      "name": "Object_0",
      "primitives": [
        {
          "attributes": {
            "NORMAL": 1,
            "POSITION": 0,
            "TEXCOORD_0": 2,
            "TEXCOORD_1": 3,
            "TEXCOORD_2": 4
          },
          "indices": 5,
          "material": 0,
          "mode": 4
        }
      ]
    },
    {
      "name": "Object_1",
      "primitives": [
        {
          "attributes": {
            "NORMAL": 7,
            "POSITION": 6,
            "TEXCOORD_0": 8,
            "TEXCOORD_1": 9,
            "TEXCOORD_2": 10
          },
          "indices": 11,
          "material": 1,
          "mode": 4
        }
      ]
    },
    {
      "name": "Object_2",
      "primitives": [
        {
          "attributes": {
            "NORMAL": 13,
            "POSITION": 12,
            "TEXCOORD_0": 14
          },
          "indices": 15,
          "material": 2,
          "mode": 4
        }
      ]
    }
  ],
  "nodes": [
    {
      "children": [
        1
      ],
      "matrix": [
        1.0,
        0.0,
        0.0,
        0.0,
        0.0,
        2.220446049250313e-16,
        -1.0,
        0.0,
        0.0,
        1.0,
        2.220446049250313e-16,
        0.0,
        0.0,
        0.0,
        0.0,
        1.0
      ],
      "name": "Sketchfab_model"
    },
    {
      "children": [
        2
      ],
      "name": "root"
    },
    {
      "children": [
        3
      ],
      "matrix": [
        1.0,
        0.0,
        0.0,
        0.0,
        0.0,
        2.220446049250313e-16,
        1.0,
        0.0,
        0.0,
        -1.0,
        2.220446049250313e-16,
        0.0,
        0.0,
        0.0,
        0.0,
        1.0
      ],
      "name": "GLTF_SceneRootNode"
    },
    {
      "children": [
        4
      ],
      "matrix": [
        0.05178386718034744,
        0.0,
        0.0,
        0.0,
        0.0,
        0.051783859729766846,
        0.0,
        0.0,
        0.0,
        0.0,
        0.051783859729766846,
        0.0,
        0.0,
        0.08145827800035477,
        7.64871072769165,
        1.0
      ],
      "name": "scene_1"
    },
    {
      "children": [
        5
      ],
      "matrix": [
        1.0,
        -0.0,
        0.0,
        0.0,
        0.0,
        0.0,
        -0.9999999403953552,
        0.0,
        0.0,
        0.9999999403953552,
        0.0,
        0.0,
        0.0,
        0.0,
        0.0,
        1.0
      ],
      "name": "RootNode (gltf orientation matrix)_2"
    },
    {
      "children": [
        6
      ],
      "name": "RootNode (model correction matrix)_3"
    },
    {
      "children": [
        7,
        9,
        11
      ],
      "name": "5925122862cc45679dd8b765201faeba.obj.cleaner.gles_4"
    },
    {
      "children": [
        8
      ],
      "name": "unnamed_5"
    },
    {
      "mesh": 0,
      "name": "Object_8"
    },
    {
      "children": [
        10
      ],
      "name": "unnamed 2_6"
    },
    {
      "mesh": 1,
      "name": "Object_10"
    },
    {
      "children": [
        12
      ],
      "name": "unnamed 3_7"
    },
    {
      "mesh": 2,
      "name": "Object_12"
    }
  ],
  "samplers": [
    {
      "magFilter": 9729,
      "minFilter": 9987,
      "wrapS": 10497,
      "wrapT": 10497
    }
  ],
  "scene": 0,
  "scenes": [
    {
      "name": "Sketchfab_Scene",
      "nodes": [
        0
      ]
    }
  ],
  "textures": [
    {
      "sampler": 0,
      "source": 0
    },
    {
      "sampler": 0,
      "source": 1
    },
    {
      "sampler": 0,
      "source": 2
    },
    {
      "sampler": 0,
      "source": 3
    }
  ]
}
