{
  "accessors": [
    {
      "bufferView": 2,
      "componentType": 5126,
      "count": 1092,
      "max": [
        0.95158010721206665,
        0.95158010721206665,
        0.82940900325775146
      ],
      "min": [
        -3.3382940292358398,
        -0.95158010721206665,
        -0.95158010721206665
      ],
      "type": "VEC3"
    },
    {
      "bufferView": 2,
      "byteOffset": 13104,
      "componentType": 5126,
      "count": 1092,
      "max": [
        1,
        1,
        1
      ],
      "min": [
        -1,
        -1,
        -1
      ],
      "type": "VEC3"
    },
    {
      "bufferView": 3,
      "componentType": 5126,
      "count": 1092,
      "max": [
        1,
        0.93049263954162598,
        0.99919611215591431,
        1
      ],
      "min": [
        -1,
        -0.93047314882278442,
        -0.99041181802749634,
        -1
      ],
      "type": "VEC4"
    },
    {
      "bufferView": 1,
      "componentType": 5126,
      "count": 1092,
      "max": [
        0.79270589351654053,
        0.79270583391189575
      ],
      "min": [
        0.20729413628578186,
        0.20729416608810425
      ],
      "type": "VEC2"
    },
    {
      "bufferView": 0,
      "componentType": 5125,
      "count": 6528,
      "max": [
        1091
      ],
      "min": [
        0
      ],
      "type": "SCALAR"
    },
    {
      "bufferView": 2,
      "byteOffset": 26208,
      "componentType": 5126,
      "count": 1092,
      "max": [
        0.96858012676239014,
        0.96858012676239014,
        1.0219969749450684
      ],
      "min": [
        -3.3552942276000977,
        -0.96858012676239014,
        -0.96858012676239014
      ],
      "type": "VEC3"
    },
    {
      "bufferView": 2,
      "byteOffset": 39312,
      "componentType": 5126,
      "count": 1092,
      "max": [
        1,
        1,
        1
      ],
      "min": [
        -1,
        -1,
        -1
      ],
      "type": "VEC3"
    },
    {
      "bufferView": 3,
      "byteOffset": 17472,
      "componentType": 5126,
      "count": 1092,
      "max": [
        1,
        0.93050116300582886,
        0.99954092502593994,
        1
      ],
      "min": [
        -1,
        -0.93048691749572754,
        -0.98715806007385254,
        -1
      ],
      "type": "VEC4"
    },
    {
      "bufferView": 1,
      "byteOffset": 8736,
      "componentType": 5126,
      "count": 1092,
      "max": [
        0.79270589351654053,
        0.79270583391189575
      ],
      "min": [
        0.20729413628578186,
        0.20729416608810425
      ],
      "type": "VEC2"
    },
    {
      "bufferView": 0,
      "byteOffset": 26112,
      "componentType": 5125,
      "count": 6528,
      "max": [
        1091
      ],
      "min": [
        0
      ],
      "type": "SCALAR"
    }
  ],
  "asset": {
    "extras": {
      "author": "k32 (https://sketchfab.com/kajuzas)",
      "license": "CC-BY-4.0 (http://creativecommons.org/licenses/by/4.0/)",
      "source": "https://sketchfab.com/3d-models/eyes-f0988f0d1707475fba1ce6b7339bbe31",
      "title": "Eyes"
    },
    "generator": "Sketchfab-4.76.0",
    "version": "2.0"
  },
  "bufferViews": [
    {
      "buffer": 0,
      "byteLength": 52224,
      "byteOffset": 0,
      "name": "floatBufferViews",
      "target": 34963
    },
    {
      "buffer": 0,
      "byteLength": 17472,
      "byteOffset": 52224,
      "byteStride": 8,
      "name": "floatBufferViews",
      "target": 34962
    },
    {
      "buffer": 0,
      "byteLength": 52416,
      "byteOffset": 69696,
      "byteStride": 12,
      "name": "floatBufferViews",
      "target": 34962
    },
    {
      "buffer": 0,
      "byteLength": 34944,
      "byteOffset": 122112,
      "byteStride": 16,
      "name": "floatBufferViews",
      "target": 34962
    }
  ],
  "buffers": [
    {
      "byteLength": 157056,
      "uri": "scene.bin"
    }
  ],
  "images": [
    {
      "uri": "textures/Gloss_normal.png"
    },
    {
      "uri": "textures/Eyes_baseColor.jpeg"
    },
    {
      "uri": "textures/Eyes_metallicRoughness.png"
    },
    {
      "uri": "textures/Eyes_normal.jpeg"
    }
  ],
  "materials": [
    {
      "doubleSided": true,
      "emissiveFactor": [
        0,
        0,
        0
      ],
      "name": "Eyes",
      "normalTexture": {
        "index": 3,
        "scale": 1,
        "texCoord": 0
      },
      "pbrMetallicRoughness": {
        "baseColorFactor": [
          1,
          1,
          1,
          1
        ],
        "baseColorTexture": {
          "index": 1,
          "texCoord": 0
        },
        "metallicFactor": 1,
        "metallicRoughnessTexture": {
          "index": 2,
          "texCoord": 0
        },
        "roughnessFactor": 1
      }
    },
    {
      "doubleSided": true,
      "emissiveFactor": [
        0,
        0,
        0
      ],
      "name": "Gloss",
      "normalTexture": {
        "index": 0,
        "scale": 1,
        "texCoord": 0
      },
      "pbrMetallicRoughness": {
        "baseColorFactor": [
          0,
          0,
          0,
          1
        ],
        "metallicFactor": 0.026105182899999999,
        "roughnessFactor": 0.15072408540000004
      }
    }
  ],
  "meshes": [
    {
      "name": "Eye_Eyes_0",
      "primitives": [
        {
          "attributes": {
            "NORMAL": 1,
            "POSITION": 0,
            "TANGENT": 2,
            "TEXCOORD_0": 3
          },
          "indices": 4,
          "material": 0,
          "mode": 4
        }
      ]
    },
    {
      "name": "Gloss_Gloss_0",
      "primitives": [
        {
          "attributes": {
            "NORMAL": 6,
            "POSITION": 5,
            "TANGENT": 7,
            "TEXCOORD_0": 8
          },
          "indices": 9,
          "material": 1,
          "mode": 4
        }
      ]
    }
  ],
  "nodes": [
    {
      "children": [
        1
      ],
      "name": "RootNode (gltf orientation matrix)",
      "rotation": [
        -0.70710678118654746,
        -0,
        -0,
        0.70710678118654757
      ]
    },
    {
      "children": [
        2
      ],
      "name": "RootNode (model correction matrix)"
    },
    {
      "children": [
        3
      ],
      "matrix": [
        1,
        0,
        0,
        0,
        0,
        0,
        1,
        0,
        0,
        -1,
        0,
        0,
        0,
        0,
        0,
        1
      ],
      "name": "c94ea5a3bcd544ce82114a1c57b2a6f2.fbx"
    },
    {
      "children": [
        4,
        6
      ],
      "name": "RootNode"
    },
    {
      "children": [
        5
      ],
      "matrix": [
        0.91989976167678755,
        -2.3013855424838408e-08,
        -2.9802324318728448e-08,
        0,
        2.301386021093306e-08,
        0.91989976167677623,
        1.4773101405660871e-07,
        0,
        2.980232448489102e-08,
        -1.4773103394657552e-07,
        0.91989988088606556,
        0,
        1.0928312540054321,
        65.019271850585938,
        3.8313827514648438,
        1
      ],
      "name": "Eye"
    },
    {
      "mesh": 0,
      "name": "Eye_Eyes_0"
    },
    {
      "children": [
        7
      ],
      "matrix": [
        0.91989976167678755,
        -2.3013855424838408e-08,
        -2.9802324318728448e-08,
        0,
        2.301386021093306e-08,
        0.91989976167677623,
        1.4773101405660871e-07,
        0,
        2.980232448489102e-08,
        -1.4773103394657552e-07,
        0.91989988088606556,
        0,
        1.0928312540054321,
        65.019271850585938,
        3.8313827514648438,
        1
      ],
      "name": "Gloss"
    },
    {
      "mesh": 1,
      "name": "Gloss_Gloss_0"
    }
  ],
  "samplers": [
    {
      "magFilter": 9729,
      "minFilter": 9987,
      "wrapS": 10497,
      "wrapT": 10497
    }
  ],
  "scene": 0,
  "scenes": [
    {
      "name": "OSG_Scene",
      "nodes": [
        0
      ]
    }
  ],
  "textures": [
    {
      "sampler": 0,
      "source": 0
    },
    {
      "sampler": 0,
      "source": 1
    },
    {
      "sampler": 0,
      "source": 2
    },
    {
      "sampler": 0,
      "source": 3
    }
  ]
}

